<svg xmlns="http://www.w3.org/2000/svg" viewBox="0 0 32 32" width="32" height="32">
  <!--
    Favicon — simplified sports car silhouette in brand blue (#1E5FFF).
    Renders recognizably at 16×16 and 32×32.
  -->
  <!-- Car body — low, wide profile -->
  <path
    d="M2 22 L4 22 L5 18 C7 13 11 10 16 10 C21 10 25 13 27 18 L28 22 L30 22 L30 24 C30 25.1 29.1 26 28 26 L26 26 C25.4 27.7 23.8 29 22 29 C20.2 29 18.6 27.7 18 26 L14 26 C13.4 27.7 11.8 29 10 29 C8.2 29 6.6 27.7 6 26 L4 26 C2.9 26 2 25.1 2 24 Z"
    fill="none" stroke="#1E5FFF" stroke-width="1.5" stroke-linejoin="round"
  />
  <!-- Roof -->
  <path
    d="M8 18 C9 13 12 10.5 16 10 C20 10.5 23 13 24 18 Z"
    fill="#1E5FFF" opacity="0.25"
    stroke="#1E5FFF" stroke-width="1" stroke-linejoin="round"
  />
  <!-- Front wheel -->
  <circle cx="10" cy="26" r="3" fill="none" stroke="#1E5FFF" stroke-width="1.5" />
  <!-- Rear wheel -->
  <circle cx="22" cy="26" r="3" fill="none" stroke="#1E5FFF" stroke-width="1.5" />
  <!-- Headlight dot -->
  <circle cx="3.5" cy="21" r="1" fill="#1E5FFF" />
</svg>
